:SAMPLES-PER-SECOND 30
:FULLY-SPECIFIED
:DEGREES
234
root  57.9719 39.7227 -12.0221 176.61 -28.4252 -178.126
RightUpLeg  1.85126 -14.2179 -10.2055
RightLeg  12.9413 -21.0252 1.34381
RightFoot  -4.72643 -0.325214 5.0725
RightToes  0.000482159 0.542163 -0.142577
Spine  22.2736 -0.552679 12.5585
Spine1  -0.483087 2.88095 -6.79604
HEad  -5.29021 29.9172 -16.2164
LeftShoulder1  8.54129 -12.7079 -45.9446
LeftArm  -10.2941 29.6124 -25.2798
LeftForeArm  35.6099 -30.0344 -4.57701
LeftHand  -0.25398 0.0180481 5.50724
RightShoulder  4.63363 8.20485 33.6294
RightArm  -8.3538 -1.60787 35.0897
RightForeArm  -9.51078 36.5565 8.86074
RightHand  -2.34479 6.36724 -23.2442
LeftUpLeg  -21.6143 28.6555 0.902415
LeftLeg  18.4236 3.70651 1.70006
LeftFoot  -0.0119728 0.214971 -2.16206
LeftToes  1.06246e-005 4.65855e-005 -8.18503e-006
235
root  57.3892 39.6678 -12.439 178.472 -31.1848 -178.749
RightUpLeg  1.86956 -14.8619 -11.4829
RightLeg  13.1026 -22.3846 1.30186
RightFoot  -5.08544 -0.396617 6.6158
RightToes  0.000482159 0.542163 -0.142577
Spine  18.6302 0.103291 10.501
Spine1  0.670079 2.74239 -5.89777
HEad  -5.08901 30.2177 -15.4035
LeftShoulder1  8.44033 -12.5448 -45.8597
LeftArm  -11.0148 29.3761 -25.2258
LeftForeArm  36.2768 -29.3863 -4.39591
LeftHand  -0.25398 0.0180481 5.50724
RightShoulder  4.58697 8.09928 33.5875
RightArm  -8.40758 -1.54455 36.2633
RightForeArm  -7.82886 39.7484 9.78662
RightHand  -2.25041 5.94551 -23.1339
LeftUpLeg  -21.7321 31.2472 -0.767475
LeftLeg  13.7821 10.4536 1.67924
LeftFoot  -0.695739 -0.0151271 0.200918
LeftToes  1.06246e-005 4.65855e-005 -8.18503e-006
236
root  56.7167 39.58 -12.8195 179.119 -34.3358 -178.565
RightUpLeg  3.47574 -14.8603 -12.1972
RightLeg  12.279 -24.9106 1.50988
RightFoot  -5.10924 -0.516573 8.82284
RightToes  0.000482159 0.542163 -0.142577
Spine  16.3453 0.188671 9.33868
Spine1  1.5515 2.51069 -5.58544
HEad  -5.25641 30.0743 -14.5507
LeftShoulder1  8.33733 -12.3709 -45.7933
LeftArm  -11.54 28.8721 -25.1658
LeftForeArm  36.6461 -28.848 -4.25711
LeftHand  -0.25398 0.0180481 5.50724
RightShoulder  4.6344 8.18032 33.718
RightArm  -8.24599 -2.10171 36.8383
RightForeArm  -5.79818 42.9276 10.7885
RightHand  -2.19507 5.72767 -23.0067
LeftUpLeg  -19.4305 26.0002 1.9013
LeftLeg  10.5117 25.5034 -0.114234
LeftFoot  -0.472254 -0.287035 3.0199
LeftToes  1.06246e-005 4.65855e-005 -8.18503e-006
237
root  55.958 39.4659 -13.1832 178.935 -38.0799 -178.024
RightUpLeg  6.15949 -14.3199 -12.5469
RightLeg  10.9371 -28.9325 1.65082
RightFoot  -4.88993 -0.598454 10.0015
RightToes  0.000482159 0.542163 -0.142577
Spine  15.277 0.0131086 8.2841
Spine1  2.00637 2.12742 -5.20951
HEad  -5.56636 29.3309 -13.7197
LeftShoulder1  8.21473 -12.1895 -45.6351
LeftArm  -11.8684 28.1405 -25.257
LeftForeArm  36.548 -28.3676 -4.15639
LeftHand  -0.25398 0.0180481 5.50724
RightShoulder  4.72467 8.34594 33.9242
RightArm  -7.91545 -3.32461 36.7549
RightForeArm  -3.62734 45.7575 11.7583
RightHand  -2.13331 5.57804 -22.6768
LeftUpLeg  -18.642 23.9998 2.48045
LeftLeg  10.1393 32.668 -0.624427
LeftFoot  0.377676 -0.588376 5.70859
LeftToes  1.06246e-005 4.65855e-005 -8.18503e-006
238
root  55.1008 39.3053 -13.5512 179.534 -42.6447 -178.476
RightUpLeg  8.58521 -14.857 -13.9117
RightLeg  10.7386 -31.8807 1.47732
RightFoot  -4.89989 -0.686655 11.6166
RightToes  0.000482159 0.542163 -0.142577
Spine  14.3021 -0.0651831 5.98942
Spine1  2.24399 1.54694 -4.14986
HEad  -6.15752 28.1708 -12.6527
LeftShoulder1  8.10332 -12.0955 -45.275
LeftArm  -12.0532 27.2099 -25.4821
LeftForeArm  36.5571 -28.0905 -4.09528
LeftHand  -0.25398 0.0180481 5.50724
RightShoulder  4.79724 8.50562 33.998
RightArm  -7.88276 -5.29932 36.3604
RightForeArm  -1.62259 47.7094 12.4592
RightHand  -2.13904 5.60581 -22.6793
LeftUpLeg  -20.9113 28.9834 -2.0685
LeftLeg  12.9691 25.6219 1.57913
LeftFoot  0.437205 -0.75494 7.29484
LeftToes  1.06246e-005 4.65855e-005 -8.18503e-006
239
root  54.1291 39.0837 -13.8904 -178.69 -47.7009 179.62
RightUpLeg  10.9537 -18.6239 -17.4641
RightLeg  12.4362 -30.6641 0.787522
RightFoot  -5.00976 -0.955803 16.4842
RightToes  0.000482159 0.542163 -0.142577
Spine  13.2315 -0.0619287 3.05662
Spine1  2.57049 1.03815 -3.28981
HEad  -7.04082 26.9186 -10.9091
LeftShoulder1  8.1002 -12.2078 -44.9207
LeftArm  -11.8864 26.1167 -25.4462
LeftForeArm  37.0005 -28.2443 -4.1063
LeftHand  -0.25398 0.0180481 5.50724
RightShoulder  4.83376 8.6377 33.8653
RightArm  -8.26397 -8.03396 36.016
RightForeArm  -0.344645 48.3797 12.6728
RightHand  -2.30016 6.01485 -23.4798
LeftUpLeg  -23.9947 33.3418 -8.713
LeftLeg  16.2503 14.8861 3.99465
LeftFoot  -1.34141 -0.673426 7.76871
LeftToes  1.06246e-005 4.65855e-005 -8.18503e-006
240
root  53.0576 38.8924 -14.1402 -176.917 -52.379 177.254
RightUpLeg  13.8762 -27.5938 -23.0855
RightLeg  15.6583 -23.5759 -1.55539
RightFoot  -3.70923 -1.47956 21.446
RightToes  0.000482159 0.542163 -0.142577
Spine  12.6367 -0.0419514 1.20795
Spine1  3.09299 0.98394 -3.67735
HEad  -6.38108 24.4461 -9.50784
LeftShoulder1  8.20918 -12.4158 -44.931
LeftArm  -11.3741 24.9317 -24.9347
LeftForeArm  37.6031 -28.7544 -4.18735
LeftHand  -0.25398 0.0180481 5.50724
RightShoulder  4.83566 8.68338 33.7327
RightArm  -8.40803 -11.0381 35.6323
RightForeArm  -0.304026 47.435 12.2503
RightHand  -2.51992 6.59753 -24.4502
LeftUpLeg  -23.6645 30.5886 -11.4311
LeftLeg  18.6912 12.2966 5.04433
LeftFoot  -4.11228 -0.472325 7.8612
LeftToes  1.06246e-005 4.65855e-005 -8.18503e-006
241
root  51.9227 38.8533 -14.2884 -176.236 -56.2334 175.727
RightUpLeg  15.1596 -34.5546 -27.2579
RightLeg  20.775 -16.4626 -6.37506
RightFoot  0.306659 -2.02206 19.9797
RightToes  0.000482159 0.542163 -0.142577
Spine  12.5994 0.044182 0.958364
Spine1  3.50952 1.30983 -4.64879
HEad  -4.61517 21.7899 -8.20399
LeftShoulder1  8.27586 -12.4265 -45.2801
LeftArm  -11.1858 23.8507 -24.4073
LeftForeArm  38.1024 -29.3696 -4.2979
LeftHand  -0.25398 0.0180481 5.50724
RightShoulder  4.81324 8.60343 33.8092
RightArm  -7.65789 -13.5585 34.9198
RightForeArm  -1.16054 44.6873 11.1718
RightHand  -2.57939 6.85284 -24.5028
LeftUpLeg  -20.9287 26.7854 -11.8174
LeftLeg  19.5017 12.9926 5.37928
LeftFoot  -6.35074 -0.317652 8.16138
LeftToes  1.06246e-005 4.65855e-005 -8.18503e-006
242
root  50.8009 38.9239 -14.3844 -176.165 -59.6484 174.952
RightUpLeg  11.6774 -27.349 -25.1869
RightLeg  28.4446 -17.039 -10.0366
RightFoot  5.88048 -1.83582 12.4207
RightToes  0.000482159 0.542163 -0.142577
Spine  12.6836 0.157309 1.08858
Spine1  3.64628 1.5355 -4.93137
HEad  -2.70905 19.7318 -7.09689
LeftShoulder1  8.19908 -12.1951 -45.5283
LeftArm  -11.8604 23.1312 -24.484
LeftForeArm  38.4012 -30.0516 -4.43532
LeftHand  -0.25398 0.0180481 5.50724
RightShoulder  4.78141 8.47394 33.9714
RightArm  -6.34815 -15.3359 34.1435
RightForeArm  -1.79678 40.4486 9.66695
RightHand  -2.43107 6.65716 -23.5078
LeftUpLeg  -17.7918 24.4568 -11.9435
LeftLeg  19.1784 12.6587 5.15756
LeftFoot  -7.88627 -0.207249 8.41891
LeftToes  1.06246e-005 4.65855e-005 -8.18503e-006
243
root  49.7682 38.9811 -14.4861 -175.574 -63.0919 173.908
RightUpLeg  7.23978 -18.9738 -22.1913
RightLeg  36.1416 -10.7988 -8.46888
RightFoot  9.74675 -1.10433 6.17233
RightToes  0.000482159 0.542163 -0.142577
Spine  12.5691 0.223115 0.502831
Spine1  3.9145 1.41613 -4.42165
HEad  -1.20565 18.133 -6.44829
LeftShoulder1  8.08424 -11.9956 -45.4655
LeftArm  -12.9006 22.7981 -25.0776
LeftForeArm  38.3696 -30.886 -4.62667
LeftHand  -0.25398 0.0180481 5.50724
RightShoulder  4.73664 8.35886 33.981
RightArm  -5.48825 -16.7129 33.9164
RightForeArm  -1.68018 35.6193 8.14379
RightHand  -2.27238 6.44191 -22.4236
LeftUpLeg  -15.0607 22.3853 -12.0641
LeftLeg  18.8555 11.5369 4.4926
LeftFoot  -9.34807 -0.0842444 8.01521
LeftToes  1.06246e-005 4.65855e-005 -8.18503e-006
244
root  48.7904 39.0054 -14.6175 -174.504 -66.5603 172.627
RightUpLeg  3.0384 -12.6079 -19.4853
RightLeg  42.7691 -1.73909 -2.04506
RightFoot  9.90157 -0.950015 5.43762
RightToes  0.000482159 0.542163 -0.142577
Spine  12.0821 0.219116 -0.498827
Spine1  4.69148 1.05462 -3.67068
HEad  -0.231192 16.6716 -6.1514
LeftShoulder1  8.0504 -11.9706 -45.3441
LeftArm  -13.4855 22.6319 -25.5862
LeftForeArm  38.2288 -31.8133 -4.8487
LeftHand  -0.25398 0.0180481 5.50724
RightShoulder  4.66797 8.22062 33.867
RightArm  -5.5172 -18.0834 34.2614
RightForeArm  -1.54523 31.2542 6.9391
RightHand  -2.22549 6.43716 -21.9863
LeftUpLeg  -12.69 19.331 -11.8663
LeftLeg  18.8119 11.3631 3.73139
LeftFoot  -10.8349 0.0334062 7.24792
LeftToes  1.06246e-005 4.65855e-005 -8.18503e-006
